<svg width="16" height="16" viewBox="0 0 16 16" fill="none" xmlns="http://www.w3.org/2000/svg">
  <!-- Background -->
  <rect width="16" height="16" rx="2" fill="#3B82F6"/>
  
  <!-- Hotel Building -->
  <rect x="3" y="6" width="10" height="7" fill="white" rx="0.5"/>
  
  <!-- Windows -->
  <rect x="4" y="7" width="1" height="1" fill="#3B82F6"/>
  <rect x="6" y="7" width="1" height="1" fill="#3B82F6"/>
  <rect x="8" y="7" width="1" height="1" fill="#3B82F6"/>
  <rect x="10" y="7" width="1" height="1" fill="#3B82F6"/>
  <rect x="12" y="7" width="1" height="1" fill="#3B82F6"/>
  
  <rect x="4" y="9" width="1" height="1" fill="#3B82F6"/>
  <rect x="6" y="9" width="1" height="1" fill="#3B82F6"/>
  <rect x="8" y="9" width="1" height="1" fill="#3B82F6"/>
  <rect x="10" y="9" width="1" height="1" fill="#3B82F6"/>
  <rect x="12" y="9" width="1" height="1" fill="#3B82F6"/>
  
  <!-- Door -->
  <rect x="7" y="11" width="2" height="2" fill="#EF4444"/>
  
  <!-- Roof -->
  <polygon points="3,6 8,3 13,6" fill="#EF4444"/>
</svg>
